<svg width="102" height="104" viewBox="0 0 102 104" fill="none" xmlns="http://www.w3.org/2000/svg">
<g filter="url(#filter0_d_902_327)">
<path fill-rule="evenodd" clip-rule="evenodd" d="M44.5002 38.1332C44.5002 35.5007 46.6343 33.3665 49.2668 33.3665H52.7335C55.366 33.3665 57.5002 35.5007 57.5002 38.1332V41.5999C57.5002 42.3178 56.9181 42.8999 56.2002 42.8999H45.8002C45.0822 42.8999 44.5002 42.3178 44.5002 41.5999V38.1332ZM49.2668 35.9665C48.0702 35.9665 47.1002 36.9366 47.1002 38.1332V40.2999H54.9002V38.1332C54.9002 36.9366 53.9301 35.9665 52.7335 35.9665H49.2668Z" fill="#7A108F"/>
<path fill-rule="evenodd" clip-rule="evenodd" d="M41.4442 38.0097C41.6633 37.9047 41.9066 38.0719 41.9061 38.3149L41.9002 41.5999C41.9002 43.7538 43.6462 45.4999 45.8002 45.4999H56.2002C58.3541 45.4999 60.1002 43.7538 60.1002 41.5999V38.3139C60.1002 38.0712 60.3433 37.9044 60.5622 38.0094C62.6163 38.9942 64.0002 41.0916 64.0002 43.4813V61.663C64.0002 64.6283 61.7913 67.1293 58.8487 67.4958C53.6365 68.1449 48.3638 68.1449 43.1516 67.4958C40.209 67.1293 38.0002 64.6283 38.0002 61.663V43.4813C38.0002 41.092 39.3896 38.9947 41.4442 38.0097ZM56.2002 50.2665C56.9181 50.2665 57.5002 50.8486 57.5002 51.5665C57.5002 52.2845 56.9181 52.8665 56.2002 52.8665H45.8002C45.0822 52.8665 44.5002 52.2845 44.5002 51.5665C44.5002 50.8486 45.0822 50.2665 45.8002 50.2665H56.2002ZM54.4668 55.4665C55.1848 55.4665 55.7668 56.0486 55.7668 56.7665C55.7668 57.4845 55.1848 58.0665 54.4668 58.0665H45.8002C45.0822 58.0665 44.5002 57.4845 44.5002 56.7665C44.5002 56.0486 45.0822 55.4665 45.8002 55.4665H54.4668Z" fill="#7A108F"/>
</g>
<defs>
<filter id="filter0_d_902_327" x="0.000152588" y="-4.63345" width="102" height="110.616" filterUnits="userSpaceOnUse" color-interpolation-filters="sRGB">
<feFlood flood-opacity="0" result="BackgroundImageFix"/>
<feColorMatrix in="SourceAlpha" type="matrix" values="0 0 0 0 0 0 0 0 0 0 0 0 0 0 0 0 0 0 127 0" result="hardAlpha"/>
<feOffset/>
<feGaussianBlur stdDeviation="19"/>
<feComposite in2="hardAlpha" operator="out"/>
<feColorMatrix type="matrix" values="0 0 0 0 0.672967 0 0 0 0 0.299552 0 0 0 0 0.804167 0 0 0 0.6 0"/>
<feBlend mode="normal" in2="BackgroundImageFix" result="effect1_dropShadow_902_327"/>
<feBlend mode="normal" in="SourceGraphic" in2="effect1_dropShadow_902_327" result="shape"/>
</filter>
</defs>
</svg>
