<svg width="34" height="32" viewBox="0 0 34 32" fill="none" xmlns="http://www.w3.org/2000/svg">
<path fill-rule="evenodd" clip-rule="evenodd" d="M16.6666 0.099823C17.3846 0.099823 17.9666 0.681853 17.9666 1.39982V4.41045C20.4477 4.44451 22.9278 4.5761 25.4011 4.8052L25.9759 4.85845C29.9015 5.22207 32.9242 8.48187 32.991 12.4236L33.012 13.6603C33.0935 18.47 32.7058 23.2762 31.8544 28.0107C31.4669 30.1653 29.592 31.7332 27.4028 31.7332H27.0196C25.0497 31.7332 23.2648 30.5722 22.4662 28.7715L20.6278 24.6266C19.1042 21.1914 14.229 21.1914 12.7054 24.6266L10.867 28.7715C10.0683 30.5722 8.28346 31.7332 6.31354 31.7332H5.93039C3.74119 31.7332 1.86623 30.1653 1.47876 28.0107C0.627352 23.2762 0.239655 18.47 0.321172 13.6603L0.342131 12.4237C0.408938 8.48188 3.43172 5.22207 7.35725 4.85845L7.93202 4.8052C10.4054 4.5761 12.8855 4.44451 15.3666 4.41045V1.39982C15.3666 0.681853 15.9486 0.099823 16.6666 0.099823ZM25.3332 10.0665C25.3332 9.1092 24.5572 8.33316 23.5999 8.33316C22.6426 8.33316 21.8666 9.1092 21.8666 10.0665V10.4998C21.8666 11.4571 22.6426 12.2332 23.5999 12.2332C24.5572 12.2332 25.3332 11.4571 25.3332 10.4998V10.0665ZM9.73325 8.76649C10.4512 8.76649 11.0332 9.34852 11.0332 10.0665V12.2332H13.1999C13.9179 12.2332 14.4999 12.8152 14.4999 13.5332C14.4999 14.2511 13.9179 14.8332 13.1999 14.8332H11.0332V16.9998C11.0332 17.7178 10.4512 18.2998 9.73325 18.2998C9.01528 18.2998 8.43325 17.7178 8.43325 16.9998V14.8332H6.26658C5.54861 14.8332 4.96658 14.2511 4.96658 13.5332C4.96658 12.8152 5.54861 12.2332 6.26658 12.2332L8.43325 12.2332V10.0665C8.43325 9.34852 9.01528 8.76649 9.73325 8.76649ZM23.5999 14.8332C24.5572 14.8332 25.3332 15.6092 25.3332 16.5665V16.9998C25.3332 17.9571 24.5572 18.7332 23.5999 18.7332C22.6426 18.7332 21.8666 17.9571 21.8666 16.9998V16.5665C21.8666 15.6092 22.6426 14.8332 23.5999 14.8332ZM27.0666 15.2665C28.0239 15.2665 28.7999 14.4904 28.7999 13.5332C28.7999 12.5759 28.0239 11.7998 27.0666 11.7998H26.6332C25.676 11.7998 24.8999 12.5759 24.8999 13.5332C24.8999 14.4904 25.676 15.2665 26.6332 15.2665H27.0666ZM22.2999 13.5332C22.2999 14.4904 21.5239 15.2665 20.5666 15.2665H20.1332C19.176 15.2665 18.3999 14.4904 18.3999 13.5332C18.3999 12.5759 19.176 11.7998 20.1332 11.7998H20.5666C21.5239 11.7998 22.2999 12.5759 22.2999 13.5332Z" fill="#92909A"/>
</svg>
