<svg width="30" height="31" viewBox="0 0 30 31" fill="none" xmlns="http://www.w3.org/2000/svg">
<path d="M28.472 25.2983C29.2402 17.9152 29.2402 10.4723 28.472 3.08917C28.2317 0.779838 25.5691 -0.389957 23.7057 0.995176L16.5927 6.28255C14.3506 7.94927 11.6311 8.84931 8.83727 8.84931H2.19999C1.2427 8.84931 0.46666 9.62534 0.46666 10.5826V17.8049C0.46666 18.7622 1.2427 19.5382 2.19999 19.5382L8.83726 19.5382C11.6311 19.5382 14.3506 20.4382 16.5927 22.105L23.7057 27.3923C25.5691 28.7775 28.2317 27.6077 28.472 25.2983Z" fill="#92909A"/>
<path d="M9.84993 23.3839C9.94949 22.9948 9.86366 22.5816 9.61741 22.2644C9.37115 21.9472 8.99211 21.7615 8.59052 21.7615L5.12386 21.7615C4.63145 21.7615 4.1813 22.0397 3.96109 22.4801L2.22776 25.9468C1.93175 26.5388 2.12781 27.2587 2.68314 27.6189L6.38203 30.0178C6.73321 30.2456 7.17259 30.2903 7.56246 30.138C7.95234 29.9857 8.24503 29.6549 8.34881 29.2494L9.84993 23.3839Z" fill="#92909A"/>
</svg>
