<svg width="34" height="34" viewBox="0 0 34 34" fill="none" xmlns="http://www.w3.org/2000/svg">
<path fill-rule="evenodd" clip-rule="evenodd" d="M17.4006 0.804799C8.30899 0.584406 0.760112 7.77595 0.539719 16.8676C0.319327 25.9592 7.51088 33.5081 16.6025 33.7285C17.1878 33.7426 17.7171 33.5785 18.1594 33.2439C18.5885 32.9194 18.8858 32.4729 19.0937 31.9952C19.5013 31.0586 19.6386 29.8304 19.6455 28.5638C19.6705 23.9848 23.6874 20.0082 28.2207 20.1799C29.4678 20.2272 30.6709 20.1604 31.598 19.8546C32.0671 19.6999 32.5237 19.4655 32.8733 19.0997C33.2405 18.7157 33.4498 18.2271 33.4634 17.6657C33.6838 8.57407 26.4922 1.02519 17.4006 0.804799ZM11.611 23.1647C10.6607 23.2809 9.98464 24.1454 10.1009 25.0956C10.2171 26.0458 11.0816 26.7219 12.0318 26.6057C12.982 26.4895 13.6581 25.625 13.5419 24.6748C13.4257 23.7245 12.5612 23.0484 11.611 23.1647ZM5.81819 18.6344C5.70198 17.6841 6.37808 16.8196 7.3283 16.7034C8.27851 16.5872 9.14301 17.2633 9.25922 18.2135C9.37543 19.1637 8.69933 20.0283 7.74912 20.1445C6.7989 20.2607 5.9344 19.5846 5.81819 18.6344ZM9.92766 9.40056C8.97745 9.51676 8.30135 10.3813 8.41756 11.3315C8.53376 12.2817 9.39827 12.9578 10.3485 12.8416C11.2987 12.7254 11.9748 11.8609 11.8586 10.9107C11.7424 9.96045 10.8779 9.28435 9.92766 9.40056ZM23.4101 12.5539C23.2939 11.6037 23.97 10.7392 24.9202 10.623C25.8705 10.5067 26.735 11.1828 26.8512 12.1331C26.9674 13.0833 26.2913 13.9478 25.3411 14.064C24.3909 14.1802 23.5263 13.5041 23.4101 12.5539ZM16.9887 15.3229C16.0385 15.4391 15.3624 16.3036 15.4786 17.2538C15.5948 18.2041 16.4593 18.8802 17.4095 18.764C18.3597 18.6477 19.0358 17.7832 18.9196 16.833C18.8034 15.8828 17.9389 15.2067 16.9887 15.3229ZM15.9495 8.66409C15.8333 7.71388 16.5094 6.84937 17.4596 6.73317C18.4098 6.61696 19.2743 7.29305 19.3905 8.24327C19.5067 9.19348 18.8306 10.058 17.8804 10.1742C16.9302 10.2904 16.0657 9.61431 15.9495 8.66409Z" fill="#92909A"/>
</svg>
