<svg width="33" height="22" viewBox="0 0 33 22" fill="none" xmlns="http://www.w3.org/2000/svg">
<path fill-rule="evenodd" clip-rule="evenodd" d="M7.61024 0.277566C11.6884 -0.0870681 15.7923 -0.0552412 19.8643 0.3726L20.9177 0.483279C22.9282 0.694525 24.5464 2.21954 24.883 4.20439L30.5655 1.18534C30.9506 0.980746 31.4126 0.982854 31.7958 1.19096C32.179 1.39906 32.4324 1.78543 32.4704 2.21984L32.5136 2.71183C32.9971 8.22673 32.9971 13.7734 32.5136 19.2882L32.4704 19.7802C32.4324 20.2146 32.179 20.601 31.7958 20.8091C31.4126 21.0172 30.9506 21.0193 30.5655 20.8147L24.883 17.7957C24.5464 19.7806 22.9282 21.3056 20.9177 21.5168L19.8643 21.6275C15.7923 22.0553 11.6884 22.0872 7.61024 21.7225L4.86848 21.4774C2.80253 21.2927 1.13328 19.7144 0.833225 17.662C0.187346 13.2442 0.187346 8.75592 0.833225 4.33811C1.13328 2.28573 2.80252 0.707433 4.86848 0.522712L7.61024 0.277566ZM25.2036 15.1022C25.3427 15.124 25.4805 15.169 25.6118 15.2388L30.0405 17.5917C30.3548 13.2029 30.3548 8.79721 30.0405 4.40841L25.6118 6.76133C25.4805 6.83108 25.3427 6.87606 25.2036 6.89791C25.4466 9.62726 25.4466 12.3728 25.2036 15.1022Z" fill="#92909A"/>
</svg>
